<?xml version="1.0" encoding="utf-8"?>
<!-- Generator: Adobe Illustrator 19.0.0, SVG Export Plug-In . SVG Version: 6.00 Build 0)  -->
<svg version="1.1" id="Layer_1" xmlns="http://www.w3.org/2000/svg" xmlns:xlink="http://www.w3.org/1999/xlink" x="0px" y="0px"
	 viewBox="-330 17.4 297.8 527.6" style="enable-background:new -330 17.4 297.8 527.6;" xml:space="preserve">
<style type="text/css">
	.st0{fill:url(#SVGID_1_);}
</style>
<linearGradient id="SVGID_1_" gradientUnits="userSpaceOnUse" x1="-181.1137" y1="547.4338" x2="-181.1137" y2="19.8674" gradientTransform="matrix(1 0 0 -1 0 564.868)">
	<stop  offset="0" style="stop-color:#57E48D"/>
	<stop  offset="1" style="stop-color:#21974F"/>
</linearGradient>
<path class="st0" d="M-291.4,61.3l-2.1-12.1c-6.7,57.1-20.2,96.3-25.3,144.9c-9.8,94.9-11.3,192.5-11.2,328.7
	c6.6-1.5,15.5-2.5,26.2-2.5c9.6,4.9,22.1,13.2,30.1,20.4c1.5,0.1,3,0.2,4.6,0.3C-263.4,340.7-270.9,179.4-291.4,61.3z M-277.1,52.8
	L-71,74.5c-2.3-13.4-4.6-26.6-7.1-39.6c-82-9.7-167-20.4-205-16.6L-277.1,52.8z M-274.5,68.7c19.5,118.3,26.5,277.4,20.9,473.4
	c78.7,5.6,152.3,2.7,221.4-7.3c-1.1-136.6-12.7-299.2-36.1-444.5L-274.5,68.7z"/>
</svg>
