<?xml version="1.0" encoding="utf-8"?>
<!-- Generator: Adobe Illustrator 19.0.0, SVG Export Plug-In . SVG Version: 6.00 Build 0)  -->
<svg version="1.1" id="Layer_1" xmlns="http://www.w3.org/2000/svg" xmlns:xlink="http://www.w3.org/1999/xlink" x="0px" y="0px"
	 viewBox="-381 149 196.1 263" style="enable-background:new -381 149 196.1 263;" xml:space="preserve">
<style type="text/css">
	.st0{fill:url(#SVGID_1_);}
</style>
<linearGradient id="SVGID_1_" gradientUnits="userSpaceOnUse" x1="-282.9268" y1="413.023" x2="-282.9268" y2="150.0481" gradientTransform="matrix(1 0 0 -1 0 562.046)">
	<stop  offset="0" style="stop-color:#57E48D"/>
	<stop  offset="1" style="stop-color:#21974F"/>
</linearGradient>
<path class="st0" d="M-187.7,205c0,0-16.1-14.4-16.1-14.7c-2.4-2.7-6.7-2.3-6.7-2.3l-31.9,0.6v0l-49.8-11.5c0,0,4.4-24.8,4.8-24.8
	c-4-3.4-13.3-3.4-13.3-3.4s-9.3,0-13.3,3.4c0.4,0,4.8,24.8,4.8,24.8l-38.3,8.9c-22.2-1.8-33.3,9.9-33.3,9.9c7.6,0.5,9.4,6.7,9.4,6.7
	l20.4,49.7l4,31.6l3,3.8v16.9l4.2,0.8v4.4l-5.8,5.6l-10.7,90.2l10.7,4.8l15.9,1.8h29.1h29.1l15.9-1.8l10.7-4.8l-10.7-90.2l-5.7-5.6
	v-4.4l4.2-0.8v-16.9l3-3.8l7.5-59.7c16.2-2.8,31-14.4,31.1-14.5c8.7-4.3,11.3,4,11.3,4c2.7,4.9-1.3,10.8-1.3,10.8
	c-10.2,18-16.2,48.7-16.3,48.7c-3,14.8-10.5,15.9-10.5,15.8c-3.4,0.5-2.3,3.9-2.3,3.9s6.9,6.3,6.9,6.4c1.8,1,3.6,0,3.6-0.1
	c16.3-22.2,24.6-40.9,24.6-40.9s13.6-34.2,13.6-34.4C-182.4,212.8-187.7,205-187.7,205z"/>
</svg>
