<?xml version="1.0" encoding="utf-8"?>
<!-- Generator: Adobe Illustrator 19.0.0, SVG Export Plug-In . SVG Version: 6.00 Build 0)  -->
<svg version="1.1" id="Layer_1" xmlns="http://www.w3.org/2000/svg" xmlns:xlink="http://www.w3.org/1999/xlink" x="0px" y="0px"
	 viewBox="-289 156.2 380.2 248.8" style="enable-background:new -289 156.2 380.2 248.8;" xml:space="preserve">
<style type="text/css">
	.st0{fill:url(#SVGID_1_);}
</style>
<linearGradient id="SVGID_1_" gradientUnits="userSpaceOnUse" x1="-98.891" y1="406.153" x2="-98.891" y2="157.305" gradientTransform="matrix(1 0 0 -1 0 562.304)">
	<stop  offset="0" style="stop-color:#57E48D"/>
	<stop  offset="1" style="stop-color:#21974F"/>
</linearGradient>
<path class="st0" d="M84,166c-14.5-14.5-33-8.8-33.8-8.5l-0.2,0.1L14.5,172c3.9-8.9,5-14.1,5-14.1c0.5-1.8-0.6-1.7-0.6-1.7h-4.7
	h-302.4c0,0-1.1-0.1-0.6,1.7c0,0,4,19.6,25.4,48.2c0,0,3,3.2,4.5,9c0,0,5.4,17.5,19,35.7l0.4,0.5c1.4,1.4,3.3,4.1,4.5,6.3
	c1.1,1.9,2.1,4.5,2.6,6.2l0.1,0.4c0,0,4.6,16.7,18.2,34.9l0.5,0.6c1.4,1.7,3,3.4,4.3,5.4c1.2,1.9,2,3.8,2.5,5.5l0.2,0.6
	c0,0,3.7,15.8,16.8,34.3c0,0,0.4,0.7,0.4,1.5v6.2c0,0,0,0.7-0.2,1.1c0,0-6.3,9-22.9,12.3l-42.7,9.4c0,0-5.4,1-6.3,4.5
	c-1.2,4.8-4.1,8.5,20.3,11.1l0.4,0c7.7,0.8,16.7,1.4,26.9,2l0.8,3.3c0,0,0.1,2.2,2.7,3.1l0.5,0.2c2.5,1,6.6,1.8,13.3,2.5l0.2,0
	c14.4,1.4,37.5,2.3,62.5,2.3c24.8,0,47.6-0.9,62.1-2.3l0.2,0c7-0.7,11.2-1.6,13.7-2.7l0.1-0.1c2.4-0.8,2.7-3.1,2.7-3.1l0.8-3.3
	c9.8-0.6,18.6-1.2,26.1-1.9l0.4,0c24.4-2.6,21.6-6.3,20.4-11.1c-0.9-3.5-6.3-4.5-6.3-4.5l-42.7-9.4c-16.6-3.4-22.9-12.3-22.9-12.3
	c-0.2-0.3-0.2-1.1-0.2-1.1V347c0-0.8,0.4-1.5,0.4-1.5c13.1-18.5,16.8-34.3,16.8-34.3l0.2-0.6c0.5-1.7,1.3-3.7,2.5-5.5
	c1.3-2,2.9-3.8,4.3-5.4l0.5-0.6C-41.6,280.7-37,264-37,264l0.1-0.4c0.5-1.7,1.5-4.3,2.6-6.2c1.3-2.2,3.1-4.9,4.5-6.3l0.4-0.5
	c8.7-11.7,14.1-23.1,16.8-29.7c2.7,0.6,5.7-0.6,7.2-3.1l15.5-25.9l0.1-0.3c0.2-0.4,3.2-5.3,8.2-6.8l0.3-0.1l35.8-14.5
	c1.5-0.4,11.9-2.9,20,5.2c7.8,7.8-0.9,22.8-1,22.9l-0.1,0.2l-14.9,28.3l-0.1,0.2c-0.5,1-4.7,9.8-4.7,18.7v31.6c0,3.7,3,6.8,6.7,6.8
	c3.7,0,6.8-3,6.8-6.8v-31.6c0-4.8,2.3-10.7,3.3-12.7l14.7-27.8c0.7-1.2,3.5-6.3,5.1-13C92.7,181.6,90.6,172.5,84,166z"/>
</svg>
