<?xml version="1.0" encoding="utf-8"?>
<!-- Generator: Adobe Illustrator 19.0.0, SVG Export Plug-In . SVG Version: 6.00 Build 0)  -->
<svg version="1.1" id="Layer_1" xmlns="http://www.w3.org/2000/svg" xmlns:xlink="http://www.w3.org/1999/xlink" x="0px" y="0px"
	 viewBox="-326 101.7 306.2 358.3" style="enable-background:new -326 101.7 306.2 358.3;" xml:space="preserve">
<style type="text/css">
	.st0{fill:url(#SVGID_1_);}
</style>
<linearGradient id="SVGID_1_" gradientUnits="userSpaceOnUse" x1="-172.9062" y1="461.717" x2="-172.9062" y2="103.434" gradientTransform="matrix(1 0 0 -1 0 563.434)">
	<stop  offset="0" style="stop-color:#1E94AB"/>
	<stop  offset="1" style="stop-color:#055463"/>
</linearGradient>
<path class="st0" d="M-138.7,364.6c-2,1.4-4.1,1.8-6.7,0.9l-2,6.4c1.6,0.5,3.1,0.8,4.6,0.8c2.9,0,5.6-0.9,8-2.7
	c10.4-7.6,12.6-30,12.6-35.1c0-4.1-1.7-6.4-3-7.6c-2.5-2.2-5.7-2.1-6.7-2h-10.2v6.7h10.4l0.4,0c0.3,0,1.2,0,1.8,0.4
	c0.6,0.5,0.7,1.8,0.7,2.5C-128.8,339.9-131.2,359.1-138.7,364.6z M-326,460h275.8v-17.6H-326C-326,448.3-326,454.1-326,460z
	 M-52.1,101.7H-326c0,23.1,0,46.2,0,69.3h273.9C-49.6,149.1-49.5,126.1-52.1,101.7z M-25.4,264.4l-121.3,8.6v-10.3h5
	c12.9,0,23.4-10.5,23.4-23.4V236h50.5c6-15.5,10.4-31.6,13.4-48.6H-326c0,81.7,0,163.3,0,245h275.8v-22.1h-33.9v-16.8h-71.1h-10.2
	c0,0,21.4-23.2,21.4-46.7c0-23.4,0-27.6,0-27.6h-37.3h-0.9h-37.3c0,0,0,4.2,0,27.6c0,23.5,21.3,46.7,21.3,46.7h-18.5h-31.9h-17.8
	V236h23.6h4.4v3.3c0,12.9,10.5,23.4,23.4,23.4h5V286h26.3v11.9h10.4V286h26.3v-3.3l121.3,10.1C-18,280.8-17.8,275.8-25.4,264.4z
	 M-194.5,388.3c0,0-0.9-1.4-2.2-3.8c-12.1-17.7-14-30.9-14-33.5c0-2.8,0-24.2,0-24.2h5.6c0,0,0,3.5,0,24.6c0,15,5.3,27.3,8.3,33.2
	c0.7,1,1.4,2,2.2,3.1c1.9,2.6,3.3,4.6,4.3,5.9h-0.3C-192.3,391.2-194.5,388.3-194.5,388.3z"/>
</svg>
