<?xml version="1.0" encoding="utf-8"?>
<!-- Generator: Adobe Illustrator 19.0.0, SVG Export Plug-In . SVG Version: 6.00 Build 0)  -->
<svg version="1.1" id="Layer_1" xmlns="http://www.w3.org/2000/svg" xmlns:xlink="http://www.w3.org/1999/xlink" x="0px" y="0px"
	 viewBox="-301 60.3 356.3 440.7" style="enable-background:new -301 60.3 356.3 440.7;" xml:space="preserve">
<style type="text/css">
	.st0{fill:url(#SVGID_1_);}
</style>
<g>
	
		<linearGradient id="SVGID_1_" gradientUnits="userSpaceOnUse" x1="-122.8555" y1="502.293" x2="-122.8555" y2="61.586" gradientTransform="matrix(1 0 0 -1 0 562.586)">
		<stop  offset="0" style="stop-color:#1E94AB"/>
		<stop  offset="1" style="stop-color:#055463"/>
	</linearGradient>
	<path class="st0" d="M55.3,425.4V495c0,3.3-2.7,6-6,6H-295c-3.3,0-6-2.7-6-6v-69.5c0-1.8,0.9-3.4,2.2-4.5l0-0.1l0.5-0.3
		c0.5-0.3,1-0.6,1.6-0.8l84-42.9c32.5-48.5,20.5-88.1,7.6-130.1c-7.1-23.4-14.5-47.6-14.8-74.4l6,0h-6v-59.7
		c0-30.8,39.9-52.3,97.1-52.3c57.2,0,97.1,21.5,97.1,52.3v59.7h-6l6,0c-0.3,26.8-7.7,51-14.8,74.4c-12.8,42-24.8,81.6,7.6,130.1
		l84,43c0.5,0.2,1,0.4,1.5,0.8l0.6,0.3l0,0.1C54.4,422,55.3,423.6,55.3,425.4z"/>
</g>
</svg>
