<?xml version="1.0" encoding="utf-8"?>
<!-- Generator: Adobe Illustrator 19.0.0, SVG Export Plug-In . SVG Version: 6.00 Build 0)  -->
<svg version="1.1" id="Layer_1" xmlns="http://www.w3.org/2000/svg" xmlns:xlink="http://www.w3.org/1999/xlink" x="0px" y="0px"
	 viewBox="-39 93.8 879.1 375.2" style="enable-background:new -39 93.8 879.1 375.2;" xml:space="preserve">
<style type="text/css">
	.st0{fill:url(#SVGID_1_);}
</style>
<g>
	
		<linearGradient id="SVGID_1_" gradientUnits="userSpaceOnUse" x1="400.571" y1="471.82" x2="400.571" y2="96.64" gradientTransform="matrix(1 0 0 -1 0 565.64)">
		<stop  offset="0" style="stop-color:#1E94AB"/>
		<stop  offset="1" style="stop-color:#055463"/>
	</linearGradient>
	<path class="st0" d="M184,469c118.7,0,215.9-82,222.6-184.9l419.8,0c7.6,0,13.7-5.4,13.7-12.1c0-6.7-6.1-12.1-13.7-12.1l-453.7,0
		c0.1-1,0.2-2,0.2-3c0-15.4-14.2-28-31.8-28c-0.2,0-0.3,0-0.5,0c-0.8-14.8-14.7-26.6-31.7-26.6c-0.4,0-0.8,0-1.2,0
		c0-0.3,0.1-0.7,0.1-1c0-15.3-14-27.7-31.3-27.9c-1.7-14-15.2-25-31.6-25c-0.1,0-0.1,0-0.2,0c0-0.1,0-0.1,0-0.2
		c0-15.4-14.2-28-31.8-28c-0.1,0-0.2,0-0.3,0c-0.8-14.8-14.7-26.5-31.7-26.5c-17,0-30.9,11.8-31.7,26.6
		c-17.3,0.3-31.2,12.7-31.2,27.9c0,0.1,0,0.1,0,0.2c-0.1,0-0.1,0-0.2,0c-16.4,0-29.9,11-31.6,25C69.4,174.2,56,186.4,56,201.4
		c0,0.3,0,0.7,0.1,1c-0.1,0-0.2,0-0.3,0c-17,0-30.9,11.8-31.7,26.5c-0.1,0-0.2,0-0.3,0c-17.6,0-31.8,12.5-31.8,28c0,1,0.1,2,0.2,3
		h-13.8c-1.9,0-3.7,0.3-5.4,1c-6.8,0.7-12,5.8-12,11.9c0,52.4,23.2,101.7,65.3,138.7C68.4,448.6,124.4,469,184,469z"/>
</g>
</svg>
