<?xml version="1.0" encoding="utf-8"?>
<!-- Generator: Adobe Illustrator 19.0.0, SVG Export Plug-In . SVG Version: 6.00 Build 0)  -->
<svg version="1.1" id="Layer_1" xmlns="http://www.w3.org/2000/svg" xmlns:xlink="http://www.w3.org/1999/xlink" x="0px" y="0px"
	 viewBox="-321 78.6 315.1 405.4" style="enable-background:new -321 78.6 315.1 405.4;" xml:space="preserve">
<style type="text/css">
	.st0{fill:url(#SVGID_1_);}
</style>
<g>
	
		<linearGradient id="SVGID_1_" gradientUnits="userSpaceOnUse" x1="-163.4559" y1="486.609" x2="-163.4559" y2="81.221" gradientTransform="matrix(1 0 0 -1 0 565.218)">
		<stop  offset="0" style="stop-color:#FF6464"/>
		<stop  offset="1" style="stop-color:#CA3030"/>
	</linearGradient>
	<path class="st0" d="M-37.6,169.6c-30-45.5-71-79.5-72.5-81l-12-10l1.5,15.5c0,0.5,6.5,59,1.5,109.5c-4.5-4.5-9-8.5-14-12.5
		c-31.5-25.5-91.5-52.5-94-53.5l-15-6.5l6.5,15c0,0.5,1,1.5,2,3.5c21,32,32.5,67.5,35,106.5c0,2.5,0.5,5,1,7l-123.5-65l10.5,18.5
		c0.5,1,47,83,74.5,148.5c17,41,66.5,52,67,52l71.5,14.5c19,9,32.5,25,34.5,46.5v6l25-0.5c2-7,7-11,14-12.5l1.5-6
		c6.5-22,6-58.5,4.5-73c-2-17,0.5-33,3.5-46.5l4-20C0.9,268.1-9.1,212.6-37.6,169.6z M-63.6,387l0.5,1.5c-0.5-0.5-0.5-1-1-1.5
		c-5-8-12-15.5-20.5-21.5l17-17L-63.6,387z M-81.1,286.6c1.5,5,3.5,10,5,15l-30.5,30.5c-2-4.5-4.5-8.5-7-12.5L-81.1,286.6z
		 M-86.1,274.1l-35.5,35.5c-3-3.5-6.5-6.5-10-9.5l39-39.5C-90.1,264.6-88.1,269.1-86.1,274.1z M-106.6,237.1c3,4,5.5,8,8,12l-43,43
		c-2-1.5-4.5-3-7-4l-5.5-3L-106.6,237.1z M-114.1,227.1l-52,52l-13-7l55.5-55.5C-120.1,220.1-117.1,223.6-114.1,227.1z
		 M-140.5,200.6c3,2,5.5,4.5,8,7l-52,52.5c-0.5-1.5-0.5-3.5-1-5c0-4-0.5-8.5-1-12.5l43.5-43.5C-142,199.6-141.5,200.1-140.5,200.6z
		 M-153.5,191.6l-35.5,35.5c-1-5.5-2-11-3.5-16l27-27C-161,186.1-157,188.6-153.5,191.6z M-213.5,157.6c4,2,8,4,12.5,6.5l-6,6
		C-209,166.1-211,161.6-213.5,157.6z M-201.5,182.6l12.5-12.5c4,2.5,8.5,4.5,12.5,7l-20,20C-198,192.1-199.5,187.1-201.5,182.6z
		 M-195,316l-8,9.5c23,19.5,73.5,63.5,104,93.5l-67-14c-12-2.5-45.5-15.5-58-44.5c-19.5-47.5-49.5-103.5-65-132l134,70.5
		c20,10.5,34.5,28,41.5,49.5l17.5,56C-133.6,368.5-191.5,319-195,316z M-97.6,357l-3.5-12v-0.5l29-29c1,5.5,2,11,3,16.5l-26.5,26
		C-96.6,358-97.1,357.5-97.6,357z M-80.1,413.5l-12-39c6.5,4.5,12.5,10.5,16.5,17l1,1.5c2,3,10,16.5,15,41.5
		C-66.1,427-73.1,420-80.1,413.5z M-39.6,419.5c-4-15.5-9-28.5-11.5-35l-3-24.5C-40.1,360.5-31.1,409-39.6,419.5z"/>
</g>
</svg>
