<?xml version="1.0" encoding="utf-8"?>
<!-- Generator: Adobe Illustrator 19.0.0, SVG Export Plug-In . SVG Version: 6.00 Build 0)  -->
<svg version="1.1" id="Layer_1" xmlns="http://www.w3.org/2000/svg" xmlns:xlink="http://www.w3.org/1999/xlink" x="0px" y="0px"
	 viewBox="-255 56.7 448 449.3" style="enable-background:new -255 56.7 448 449.3;" xml:space="preserve">
<style type="text/css">
	.st0{fill:url(#SVGID_1_);}
</style>
<linearGradient id="SVGID_1_" gradientUnits="userSpaceOnUse" x1="-30.9966" y1="508.7383" x2="-30.9966" y2="59.4745" gradientTransform="matrix(1 0 0 -1 0 565.476)">
	<stop  offset="0" style="stop-color:#FF6464"/>
	<stop  offset="1" style="stop-color:#CA3030"/>
</linearGradient>
<path class="st0" d="M187.9,61.8c-6.8-6.8-17.8-6.8-24.6,0L-20.2,245.3c-2.4,2.5-0.8,7.2,2.6,11.9l-33.2,33.2l0,0
	c-3.3,3.3-14.1,6.5-18.4,4.9c-45.6-33.7-110.2-29.8-151.6,11.5c-45.5,45.6-45.5,119.4,0,164.9c45.5,45.5,119.4,45.5,164.9,0
	c41.3-41.3,45.1-105.9,11.5-151.6c-1.6-4.3,1.6-15.1,4.9-18.4l0,0L-6,268.4c4.2,2.7,8.3,3.8,10.5,1.6L187.9,86.4
	C194.7,79.6,194.7,68.6,187.9,61.8z M-237.2,367.6c1-3.8,4.9-6,8.7-5c3.8,1,6,4.9,5,8.7c-1,3.8-4.9,6-8.7,5
	C-236,375.3-238.3,371.4-237.2,367.6z M-228.5,424.7c-3.8,1-7.7-1.2-8.7-5c-1-3.8,1.2-7.7,5-8.7c3.8-1,7.7,1.2,8.7,5
	C-222.5,419.8-224.8,423.7-228.5,424.7z M-78.9,322.5c2.8-2.8,7.3-2.8,10,0c2.8,2.8,2.8,7.3,0,10c-2.8,2.8-7.3,2.8-10,0
	C-81.7,329.7-81.7,325.3-78.9,322.5z M-96.2,382.5c3.9-0.3,7.3,2.5,7.7,6.5c0.3,3.9-2.5,7.3-6.5,7.7c-3.9,0.3-7.3-2.5-7.7-6.5
	C-103,386.3-100.1,382.8-96.2,382.5z M-103.4,367.1c-2.8,2.8-7.3,2.8-10,0c-2.8-2.8-2.8-7.3,0-10c2.8-2.8,7.3-2.8,10,0
	C-100.6,359.8-100.6,364.3-103.4,367.1z M-105.5,325.9c3.5,1.8,4.9,6,3.1,9.5c-1.8,3.5-6.1,4.9-9.6,3.1c-3.5-1.8-4.9-6.1-3.1-9.6
	C-113.3,325.5-109,324.1-105.5,325.9z M-122.7,301.5c1-3.8,4.9-6,8.7-5c3.8,1,6,4.9,5,8.7c-1,3.8-4.9,6-8.7,5
	C-121.5,309.1-123.7,305.2-122.7,301.5z M-121.4,383.3c3.9-0.6,7.5,2,8.1,5.9c0.6,3.9-2,7.5-5.9,8.1c-3.9,0.6-7.5-2-8.1-5.9
	C-127.9,387.6-125.3,384-121.4,383.3z M-126.5,443.2c-3.8,1-7.7-1.2-8.7-5c-1-3.8,1.2-7.7,5-8.7c3.8-1,7.7,1.2,8.7,5
	C-120.5,438.2-122.7,442.1-126.5,443.2z M-135.3,342.1c3.9,0.3,6.8,3.8,6.5,7.7c-0.3,3.9-3.8,6.8-7.7,6.5c-3.9-0.3-6.8-3.8-6.5-7.7
	C-142.7,344.7-139.2,341.8-135.3,342.1z M-166.1,296.4c3.8-1,7.7,1.2,8.7,5c1,3.8-1.2,7.7-5,8.7c-3.8,1-7.7-1.2-8.7-5
	C-172.1,301.3-169.9,297.4-166.1,296.4z M-169.3,351.2c3.2-2.2,7.6-1.5,9.9,1.7c2.2,3.2,1.5,7.6-1.7,9.9c-3.2,2.2-7.6,1.5-9.9-1.7
	C-173.3,357.9-172.6,353.5-169.3,351.2z M-154.3,378.1c3.5,1.8,4.9,6.1,3.1,9.6c-1.8,3.5-6.1,4.9-9.6,3.1c-3.5-1.8-4.9-6-3.1-9.5
	C-162,377.8-157.8,376.4-154.3,378.1z M-211.2,322.5c2.8-2.8,7.3-2.8,10,0s2.8,7.3,0,10c-2.8,2.8-7.3,2.8-10,0
	C-214,329.7-214,325.2-211.2,322.5z M-215.1,381.7c0.6-3.9,4.2-6.5,8.1-5.9c3.9,0.6,6.5,4.3,5.9,8.1c-0.6,3.9-4.2,6.5-8.1,5.9
	C-213.1,389.3-215.8,385.6-215.1,381.7z M-201.2,464.8c-2.8,2.8-7.3,2.8-10,0c-2.8-2.8-2.8-7.3,0-10c2.8-2.8,7.3-2.8,10,0
	C-198.4,457.5-198.4,462-201.2,464.8z M-198.2,431.3c-3.5,1.8-7.8,0.4-9.6-3.1c-1.8-3.5-0.4-7.8,3.1-9.5c3.5-1.8,7.8-0.4,9.6,3.1
	C-193.4,425.2-194.8,429.5-198.2,431.3z M-193.8,339.9c2.8-2.8,7.3-2.8,10,0c2.8,2.8,2.8,7.3,0,10c-2.8,2.8-7.3,2.8-10,0
	C-196.6,347.1-196.6,342.6-193.8,339.9z M-189.5,380.1c1-3.8,4.9-6,8.7-5c3.8,1,6,4.9,5,8.7c-1,3.8-4.9,6-8.7,5
	C-188.3,387.8-190.6,383.9-189.5,380.1z M-186.5,415.2c-1.7-3.5-0.1-7.8,3.4-9.4c3.6-1.7,7.8-0.1,9.4,3.4c1.7,3.6,0.1,7.8-3.4,9.4
	C-180.6,420.3-184.8,418.7-186.5,415.2z M-174.6,461.4c-3.5-1.8-4.9-6-3.1-9.5s6.1-4.9,9.6-3.1c3.5,1.8,4.9,6.1,3.1,9.5
	C-166.8,461.8-171.1,463.2-174.6,461.4z M-157.4,485.8c-1,3.8-4.9,6-8.7,5c-3.8-1-6-4.9-5-8.7c1-3.8,4.9-6,8.7-5
	C-158.6,478.1-156.4,482-157.4,485.8z M-152.1,436.6c-1.7,3.6-5.9,5.1-9.4,3.4c-3.6-1.7-5.1-5.9-3.4-9.4c1.7-3.6,5.9-5.1,9.4-3.4
	C-152,428.9-150.5,433.1-152.1,436.6z M-148.8,412.5c-2.8,2.8-7.3,2.8-10,0c-2.8-2.8-2.8-7.3,0-10c2.8-2.8,7.3-2.8,10,0
	C-146.1,405.2-146.1,409.7-148.8,412.5z M-149.7,332.5c-3.9,0.6-7.5-2-8.1-5.9c-0.6-3.9,2-7.5,5.9-8.1c3.9-0.6,7.5,2,8.1,5.9
	C-143.2,328.3-145.8,331.9-149.7,332.5z M-143.8,372.8c0.6-3.9,4.2-6.5,8.1-5.9c3.9,0.6,6.5,4.2,5.9,8.1c-0.6,3.9-4.2,6.5-8.1,5.9
	C-141.7,380.3-144.4,376.7-143.8,372.8z M-134.1,404.8c3.5-1.8,7.8-0.4,9.6,3.1c1.8,3.5,0.4,7.8-3.1,9.5c-3.5,1.8-7.8,0.4-9.5-3.1
	C-139,410.8-137.6,406.6-134.1,404.8z M-128.1,468.8c-3.9,0.6-7.5-2-8.1-5.9c-0.6-3.9,2-7.5,5.9-8.1c3.9-0.6,7.5,2,8.1,5.9
	C-121.6,464.5-124.3,468.1-128.1,468.8z M-114,490.8c-3.8,1-7.7-1.2-8.7-5c-1-3.8,1.2-7.7,5-8.7c3.8-1,7.7,1.2,8.7,5
	C-108,485.9-110.2,489.8-114,490.8z M-107.5,424.7c-3.2-2.2-4-6.7-1.7-9.9c2.3-3.2,6.7-4,9.9-1.7c3.2,2.2,4,6.7,1.7,9.9
	C-99.9,426.2-104.3,426.9-107.5,424.7z M-86.3,447.4c-2.8,2.8-7.3,2.8-10,0c-2.8-2.8-2.8-7.3,0-10c2.8-2.8,7.3-2.8,10,0
	C-83.5,440.1-83.5,444.6-86.3,447.4z M-84.9,365.6c-1.8-3.5-0.4-7.8,3.1-9.5c3.5-1.8,7.8-0.4,9.5,3.1c1.8,3.5,0.4,7.8-3.1,9.5
	C-78.9,370.4-83.1,369-84.9,365.6z M-68.9,464.8c-2.8,2.8-7.3,2.8-10,0c-2.8-2.8-2.8-7.3,0-10c2.8-2.8,7.3-2.8,10,0
	C-66.1,457.5-66.1,462-68.9,464.8z M-64.9,405.5c-0.6,3.9-4.2,6.5-8.1,5.9c-3.9-0.6-6.5-4.2-5.9-8.1c0.6-3.9,4.2-6.5,8.1-5.9
	C-66.9,398-64.3,401.7-64.9,405.5z M-42.8,419.7c-1,3.8-4.9,6-8.7,5c-3.8-1-6-4.9-5-8.7c1-3.8,4.9-6,8.7-5
	C-44.1,412-41.8,415.9-42.8,419.7z M-42.8,367.6c1,3.8-1.2,7.7-5,8.7c-3.8,1-7.7-1.2-8.7-5c-1-3.8,1.2-7.7,5-8.7
	C-47.7,361.6-43.8,363.8-42.8,367.6z M180.6,82l-16.7,16.7c-3.5,3.5-9.3,3.5-12.9,0c-3.5-3.6-3.5-9.3,0-12.9l16.7-16.7
	c3.5-3.5,9.3-3.5,12.9,0C184.1,72.7,184.1,78.5,180.6,82z"/>
</svg>
