<?xml version="1.0" encoding="utf-8"?>
<!-- Generator: Adobe Illustrator 19.0.0, SVG Export Plug-In . SVG Version: 6.00 Build 0)  -->
<svg version="1.1" id="Layer_1" xmlns="http://www.w3.org/2000/svg" xmlns:xlink="http://www.w3.org/1999/xlink" x="0px" y="0px"
	 viewBox="-226 118 506 325" style="enable-background:new -226 118 506 325;" xml:space="preserve">
<style type="text/css">
	.st0{fill:url(#SVGID_1_);stroke:url(#SVGID_2_);stroke-miterlimit:10;}
	.st1{fill:url(#SVGID_3_);stroke:url(#SVGID_4_);stroke-miterlimit:10;}
</style>
<linearGradient id="SVGID_1_" gradientUnits="userSpaceOnUse" x1="26.5" y1="112.036" x2="26.4999" y2="437.136" gradientTransform="matrix(1 0 0 1 0 5.914)">
	<stop  offset="0" style="stop-color:#F25050"/>
	<stop  offset="1" style="stop-color:#F25050"/>
</linearGradient>
<linearGradient id="SVGID_2_" gradientUnits="userSpaceOnUse" x1="-227.0942" y1="281.5" x2="280.0941" y2="281.5" gradientTransform="matrix(1 0 0 -1 0 562)">
	<stop  offset="0" style="stop-color:#FF6464"/>
	<stop  offset="1" style="stop-color:#CA3030"/>
</linearGradient>
<path class="st0" d="M276.5,186.4c-23-17.8-33.6-12.3-33.6-12.3c-40.1,16.8-53,82.4-53,82.4c-4.3,13.9-23.2,13.1-40.4,9
	c-0.7-2.8-1.2-4.4-1.2-4.4c-10.3-28-41.4-51.7-41.4-51.7c-8.6-7.1-9.5-16.4-9.5-16.4c4.3-5.4,1.7-11.2,1.7-11.2
	c-5.2-18.1-75-19.8-75-19.8c-11.2-0.9-10.4-9.5-10.4-9.5c6.1-3.4,6.9-13.8,6.9-13.8c0-20.4-23.2-20.7-25.7-20.7
	c-2.4,0-25.6,0.3-25.6,20.7c0,0,0.9,10.4,6.9,13.8c0,0,0.9,8.6-10.4,9.5c0,0-69.8,1.7-75,19.8c0,0-2.6,5.8,1.7,11.2
	c0,0-0.8,9.3-9.5,16.4c0,0-1.1,0.7-3,1.9c-10.1-13.8-34-37.5-72.5-23.1c0,0-34.1,8.6-34.1,61.7c0,0-1.3,47.8,47.8,81.5
	c0,0,9.7,6.4,19.2,14.8c6.7,23.6,21,47.5,49.4,65c0,0,8.1,5.7,6.9,16.4c0,0,23.3,15.5,88.8,15.5H4.2c65.5,0,88.8-15.5,88.8-15.5
	c-1.2-10.7,6.9-16.4,6.9-16.4c22.8-14,36.6-32.2,44.5-51.1c78.4-11.8,86.7-108.4,86.7-108.4c7.1-51.7,40.1-55,40.1-55
	C286.2,195.1,276.5,186.4,276.5,186.4z M-186.7,303.4c0,0-28.9-33.6-22.4-68.6c0,0,3.5-27.2,31-32.3c0,0,34-3.4,37.9,26.7l0.1,0.1
	c-7.2,8.2-14.3,18.9-18.2,31.8c0,0-8.3,26.2-5.8,58.4C-172.1,315.4-180.6,310-186.7,303.4z"/>
<linearGradient id="SVGID_3_" gradientUnits="userSpaceOnUse" x1="27.5" y1="112.036" x2="27.4999" y2="437.136" gradientTransform="matrix(1 0 0 1 0 5.914)">
	<stop  offset="0" style="stop-color:#FE6D6D"/>
	<stop  offset="1" style="stop-color:#CA3030"/>
</linearGradient>
<linearGradient id="SVGID_4_" gradientUnits="userSpaceOnUse" x1="-226.0942" y1="281.5" x2="281.0941" y2="281.5" gradientTransform="matrix(1 0 0 -1 0 562)">
	<stop  offset="0" style="stop-color:#FF6464"/>
	<stop  offset="1" style="stop-color:#CA3030"/>
</linearGradient>
<path class="st1" d="M277.5,186.4c-23-17.8-33.6-12.3-33.6-12.3c-40.1,16.8-53,82.4-53,82.4c-4.3,13.9-23.2,13.1-40.4,9
	c-0.7-2.8-1.2-4.4-1.2-4.4c-10.3-28-41.4-51.7-41.4-51.7c-8.6-7.1-9.5-16.4-9.5-16.4c4.3-5.4,1.7-11.2,1.7-11.2
	c-5.2-18.1-75-19.8-75-19.8c-11.2-0.9-10.4-9.5-10.4-9.5c6.1-3.4,6.9-13.8,6.9-13.8c0-20.4-23.2-20.7-25.7-20.7
	c-2.4,0-25.6,0.3-25.6,20.7c0,0,0.9,10.4,6.9,13.8c0,0,0.9,8.6-10.4,9.5c0,0-69.8,1.7-75,19.8c0,0-2.6,5.8,1.7,11.2
	c0,0-0.8,9.3-9.5,16.4c0,0-1.1,0.7-3,1.9c-10.1-13.8-34-37.5-72.5-23.1c0,0-34.1,8.6-34.1,61.7c0,0-1.3,47.8,47.8,81.5
	c0,0,9.7,6.4,19.2,14.8c6.7,23.6,21,47.5,49.4,65c0,0,8.1,5.7,6.9,16.4c0,0,23.3,15.5,88.8,15.5H5.2c65.5,0,88.8-15.5,88.8-15.5
	c-1.2-10.7,6.9-16.4,6.9-16.4c22.8-14,36.6-32.2,44.5-51.1c78.4-11.8,86.7-108.4,86.7-108.4c7.1-51.7,40.1-55,40.1-55
	C287.2,195.1,277.5,186.4,277.5,186.4z M-185.7,303.4c0,0-28.9-33.6-22.4-68.6c0,0,3.5-27.2,31-32.3c0,0,34-3.4,37.9,26.7l0.1,0.1
	c-7.2,8.2-14.3,18.9-18.2,31.8c0,0-8.3,26.2-5.8,58.4C-171.1,315.4-179.6,310-185.7,303.4z"/>
</svg>
